<?xml version="1.0" encoding="UTF-8" standalone="no"?>
<!-- Created with Inkscape (http://www.inkscape.org/) -->

<svg
   version="1.1"
   id="svg2"
   width="469.72"
   height="226.06667"
   viewBox="0 0 469.72 226.06667"
   sodipodi:docname="greenbelt_Logo_1C_OL.eps"
   xmlns:inkscape="http://www.inkscape.org/namespaces/inkscape"
   xmlns:sodipodi="http://sodipodi.sourceforge.net/DTD/sodipodi-0.dtd"
   xmlns="http://www.w3.org/2000/svg"
   xmlns:svg="http://www.w3.org/2000/svg">
  <defs
     id="defs6" />
  <sodipodi:namedview
     id="namedview4"
     pagecolor="#ffffff"
     bordercolor="#000000"
     borderopacity="0.25"
     inkscape:showpageshadow="2"
     inkscape:pageopacity="0.0"
     inkscape:pagecheckerboard="0"
     inkscape:deskcolor="#d1d1d1" />
  <g
     id="g8"
     inkscape:groupmode="layer"
     inkscape:label="ink_ext_XXXXXX"
     transform="matrix(1.3333333,0,0,-1.3333333,0,226.06667)">
    <g
       id="g10"
       transform="scale(0.1)">
      <path
         d="m 233.758,1195.3 c -25.262,-25.35 -56.688,-42.69 -98.797,-55.23 -41.1446,-12.46 -72.3047,-13.87 -97.3165,-5.04 -35.7695,12.54 -32.03122,49.65 -29.89059,89.53 2.07031,39.53 3.04689,76.41 38.61329,118.67 24.4922,28.87 51.7383,49.69 90.2738,62.11 45.664,14.38 69.738,11.37 99.218,-5.58 -17.363,-18.44 -35.078,-37.31 -53.105,-56.6 -15.781,8.24 -25.82,11.6 -46.426,5.11 -14.668,-4.53 -25.754,-13.51 -31.914,-21.79 -7.4726,-10.32 -12.3632,-20.75 -13.4687,-68.56 -1.1406,-47.73 3.5274,-55.23 11.1137,-60.35 6.183,-4.1 17.765,-4.96 33.363,-0.23 17.918,5.43 27.078,11.87 34.781,20.23 9.121,9.49 12.305,23.09 12.219,31.95 0,0.98 0,1.92 -0.051,2.89 -15.535,-4.02 -31.094,-8.47 -46.719,-13.24 0.11,17.85 0.227,35.67 0.332,53.48 42.434,13.16 84.707,23.55 126.731,31.56 0.547,-11.68 0.996,-23.44 1.473,-35.12 1.769,-42.18 -4.793,-68.32 -30.43,-93.79"
         style="fill:#006838;fill-opacity:1;fill-rule:nonzero;stroke:none"
         id="path12" />
      <path
         d="m 413.055,1399.88 c -14.891,-0.98 -29.715,-2.11 -44.637,-3.48 1.629,-17.74 3.152,-35.43 4.746,-53.01 15.195,1.37 30.371,2.42 45.527,3.32 22.071,1.17 33.399,14.49 31.77,28.2 -1.664,13.79 -15.773,26.33 -37.406,24.97 z m 62.949,-203.6 c -23.961,32.35 -47.488,64.22 -70.41,95.39 -9.258,-0.62 -18.485,-1.29 -27.684,-2.07 2.801,-32.5 5.594,-65.04 8.328,-97.54 -28.347,-2.15 -56.746,-5.19 -85.215,-9.14 -4.863,87.07 -9.937,174.06 -15.261,260.94 41.687,6.84 83.203,11.44 124.597,14.22 69.336,4.65 112.969,-38.44 119.551,-81.99 5.363,-36.21 -19.082,-58.6 -43.875,-69.3 28.711,-36.21 58.113,-73.28 88.203,-110.9 -32.687,0.9 -65.429,1.09 -98.234,0.39"
         style="fill:#006838;fill-opacity:1;fill-rule:nonzero;stroke:none"
         id="path14" />
      <path
         d="m 593.672,1196.44 c -13.887,88.47 -28.379,177.22 -43.399,266.17 70.782,-1.72 141.473,-7.15 212.313,-13.83 4.941,-19.69 9.738,-39.49 14.582,-59.22 -46.289,4.34 -92.48,8.17 -138.691,11.02 2.91,-15 5.789,-29.92 8.66,-44.85 40.136,-2.5 80.285,-5.7 120.422,-9.25 4.636,-19.65 9.277,-39.26 13.828,-58.79 -41.016,3.55 -82.032,6.91 -122.989,9.45 2.95,-15.59 5.907,-31.25 8.868,-46.87 48.757,-3.05 97.558,-7.07 146.464,-11.29 4.668,-19.38 9.336,-38.75 13.946,-58.13 -78.125,6.33 -155.977,12.58 -234.004,15.59"
         style="fill:#006838;fill-opacity:1;fill-rule:nonzero;stroke:none"
         id="path16" />
      <path
         d="m 873.535,1177.45 c -22.48,88.13 -45.742,177.31 -69.844,267.46 71.055,-6.99 142.344,-14.76 214.119,-20.78 6.9,-19.37 13.77,-38.71 20.61,-57.85 -46.994,3.2 -93.674,7.38 -140.256,11.8 4.414,-14.92 8.84,-29.88 13.223,-44.73 40.437,-3.59 80.984,-6.91 121.783,-9.57 6.59,-19.06 13.26,-38.05 19.78,-56.95 -41.65,2.07 -83.177,5.04 -124.544,8.28 4.543,-15.51 9.063,-30.9 13.567,-46.29 49.297,-3.48 98.797,-6.41 148.517,-7.73 6.7,-18.56 13.38,-37 19.95,-55.28 -79.53,0.74 -158.428,5.78 -236.905,11.64"
         style="fill:#006838;fill-opacity:1;fill-rule:nonzero;stroke:none"
         id="path18" />
      <path
         d="m 1355.51,1184.21 c -57.93,30.78 -114.07,67.5 -168.5,108.01 17.94,-41.25 35.68,-81.68 53.13,-121.17 -29.27,-2.11 -58.39,-3.28 -87.4,-3.91 -31.64,82.15 -64.23,167.11 -97.73,254.61 22.78,-1.52 45.64,-2.85 68.64,-3.87 52.57,-44.29 106.76,-85.93 162.66,-122.81 -19.59,39.3 -39.35,79.69 -59.38,121.06 26.59,0.31 53.33,1.21 80.17,2.81 43.31,-78.32 85.51,-151.72 126.86,-219.65 -26.29,-5.9 -52.47,-10.94 -78.45,-15.08"
         style="fill:#006838;fill-opacity:1;fill-rule:nonzero;stroke:none"
         id="path20" />
      <path
         d="m 170.73,974.289 c -20.703,-5.469 -41.589,-11.68 -62.488,-18.476 0.125,-15.04 0.262,-30.118 0.379,-45.157 21.379,6.953 42.617,13.125 63.789,18.75 25.93,6.719 33.86,20.235 33.254,31.094 -0.535,10.703 -9.609,20.469 -34.934,13.789 z m -8.339,96.681 c -18.34,-5.04 -36.68,-10.63 -55.137,-16.76 0.148,-13.91 0.305,-27.81 0.441,-41.72 18.778,6.14 37.52,11.76 56.231,16.92 24.754,6.68 31.855,18.98 31.328,29.1 -0.566,9.96 -8.691,19.06 -32.863,12.46 z M 183.914,875.344 C 126.953,861.008 69.3945,842.063 11.3672,817.336 c 2.7734,87.031 5.6758,173.867 8.6797,260.394 48.9062,20.93 97.3751,37.77 145.5981,51.01 72.293,19.65 113.476,-5.35 117.89,-49.02 2.844,-28.99 -24.484,-49.92 -35.566,-57.62 15.508,-3.28 47.383,-11.52 50.808,-47.381 4.778,-49.141 -44.566,-81.914 -114.863,-99.375"
         style="fill:#006838;fill-opacity:1;fill-rule:nonzero;stroke:none"
         id="path22" />
      <path
         d="m 337.734,909.211 c -9.746,84.922 -19.941,169.879 -30.546,254.689 78.164,9.8 155.867,11.99 233.183,9.37 4.453,-18.86 8.895,-37.73 13.301,-56.56 -50.774,1.76 -101.621,1.68 -152.715,-1.13 2.336,-14.18 4.637,-28.52 6.941,-42.7 44.563,2.27 88.868,2.62 133.098,1.41 4.199,-18.75 8.348,-37.5 12.402,-56.21 -45.371,1.21 -90.859,1.01 -136.503,-1.21 2.371,-14.85 4.765,-29.847 7.078,-44.768 54.504,2.5 108.781,2.304 162.941,0.195 4.266,-18.711 8.438,-37.383 12.637,-55.977 -86.778,3.243 -173.918,2.344 -261.817,-7.109"
         style="fill:#006838;fill-opacity:1;fill-rule:nonzero;stroke:none"
         id="path24" />
      <path
         d="m 642.188,920.109 c -20.809,85.121 -42.579,170.981 -65.247,257.191 27.981,-1.53 55.997,-3.67 84.016,-6.1 20.43,-67.61 40.215,-134.76 59.414,-201.325 52.617,-3.789 105.234,-8.437 157.957,-12.695 6.738,-18.282 13.43,-36.446 20.031,-54.532 -85.566,5.938 -170.871,13.165 -256.171,17.461"
         style="fill:#006838;fill-opacity:1;fill-rule:nonzero;stroke:none"
         id="path26" />
      <path
         d="m 952.695,1087.45 c 30.067,-64.72 59.275,-127.731 87.645,-188.903 -32.14,0.508 -64.188,1.601 -96.152,3.086 -25.567,63.398 -51.954,128.167 -79.059,194.257 -29.043,3.01 -58.051,6.17 -87.004,9.18 -6.738,18.83 -13.566,37.73 -20.441,56.72 84.679,-9.26 169.738,-19.77 255.656,-27.23 9.33,-18.04 18.55,-35.97 27.73,-53.63 -29.56,1.76 -59,3.98 -88.375,6.52"
         style="fill:#006838;fill-opacity:1;fill-rule:nonzero;stroke:none"
         id="path28" />
      <path
         d="M 1994.96,883.82 C 1882.19,790.695 1679.14,687.289 1329.71,678.738 988.934,659.949 691.992,730.969 691.992,730.969 365.527,801.633 104.277,701.828 15.1836,660.422 l -0.3789,-13.551 c 0,0 289.0313,141.402 676.5233,63.668 0,0 1075.702,-300.98 1468.012,263.242 l -35.67,28.709 c -38.9,-45.271 -82.11,-84.607 -128.71,-118.67"
         style="fill:#006838;fill-opacity:1;fill-rule:nonzero;stroke:none"
         id="path30" />
      <path
         d="M 723.887,810.266 C 1551.8,687.84 1895.12,930.383 2023.13,1077.38 c 4.37,5.7 8.71,11.44 12.89,17.38 l -47,37.81 C 1888.48,999.172 1569.61,716.477 717.07,833.43 c 0,0 -393.152,57.304 -703.0778,-104.961 l 1.1914,-11.406 C 375.73,892.023 723.887,810.266 723.887,810.266"
         style="fill:#006838;fill-opacity:1;fill-rule:nonzero;stroke:none"
         id="path32" />
      <path
         d="m 1889.61,1188.08 -6.21,5.08 -37.97,31.36 c 0,0 -116.52,-259.957 -597.83,-350.543 0,0 20.3,1.171 54.4,6.093 120.6,17.5 413.59,82.11 587.61,308.01"
         style="fill:#006838;fill-opacity:1;fill-rule:nonzero;stroke:none"
         id="path34" />
      <path
         d="m 1453.8,953.078 c 0,0 197.76,50.902 377.18,271.722 l -45.28,46.29 c 0,0 -84.96,-216.33 -331.9,-318.012"
         style="fill:#006838;fill-opacity:1;fill-rule:nonzero;stroke:none"
         id="path36" />
      <path
         d="m 1300.94,594.441 c -319.417,2.231 -586.616,79.688 -586.616,79.688 -117.469,28.09 -227.5,34.926 -324.004,30.707 C 279.559,699.133 152.207,677.02 26.8359,621.359 l -0.6562,-12.418 c 0,0 308.7223,136.325 681.2223,31.598 0,0 1084.628,-352.391 1499.828,227.617 l -50.71,39.805 c -1.17,-1.328 -2.34,-2.656 -3.47,-4.023 -24.3,-39.922 -220.04,-325.708 -852.11,-309.497"
         style="fill:#006838;fill-opacity:1;fill-rule:nonzero;stroke:none"
         id="path38" />
      <path
         d="m 670.508,765.969 c 0,0 1011.052,-233.758 1423.282,256.131 l -47.62,38.36 C 1923.95,912.219 1574.18,650.109 679.148,797.922 c 0,0 -353.378,62.656 -678.280812,-105.82 L 0,678.539 c 65.8008,31.531 336.66,150.399 670.508,87.43"
         style="fill:#006838;fill-opacity:1;fill-rule:nonzero;stroke:none"
         id="path40" />
      <path
         d="m 979.98,828.977 c 105.54,-13.946 377.49,6.367 548.08,52.578 163.39,44.258 323.58,122.465 437.14,257.305 l -4.5,3.63 -45.47,36.6 C 1728.55,877.57 1212.73,831.555 973.191,852.102 733.621,872.688 315.879,943.781 8.28125,768.781 L 9.49219,757.414 C 370.047,932.336 874.395,842.883 979.98,828.977"
         style="fill:#006838;fill-opacity:1;fill-rule:nonzero;stroke:none"
         id="path42" />
      <path
         d="m 1342.81,1433.2 140.83,-226.14 39.85,6.29 c 0,0 -75.81,87.07 -164.86,221.1 l -15.82,-1.25"
         style="fill:#006838;fill-opacity:1;fill-rule:nonzero;stroke:none"
         id="path44" />
      <path
         d="m 1381.7,1443.51 c 0,0 108.47,-155.04 178.73,-222.7 l 47.89,8.44 c 0,0 -102.45,99.57 -207.56,216.68 l -19.06,-2.42"
         style="fill:#006838;fill-opacity:1;fill-rule:nonzero;stroke:none"
         id="path46" />
      <path
         d="m 1436.86,1447.3 200.09,-214.38 20.78,3.91 -189.14,214.57 -31.73,-4.1"
         style="fill:#006838;fill-opacity:1;fill-rule:nonzero;stroke:none"
         id="path48" />
      <path
         d="m 1544.23,1479.91 c 0,0 127.18,-128.67 210.18,-194.72 l 21.49,36.21 c 0,0 -71.49,44.37 -209.22,163.71 l -22.45,-5.2"
         style="fill:#006838;fill-opacity:1;fill-rule:nonzero;stroke:none"
         id="path50" />
      <path
         d="m 1595.86,1507.77 c 0,0 -317.44,-41.72 -752.786,107.06 0,0 -414.773,155 -808.2029,35.39 l -1.9727,-45.15 c 0,0 233.4806,155.63 797.5236,-13.79 0,0 442.288,-152.73 765.438,-83.51"
         style="fill:#006838;fill-opacity:1;fill-rule:nonzero;stroke:none"
         id="path52" />
      <path
         d="m 7.54688,1485.89 c 0,0 306.19112,192.89 812.70712,31.88 0,0 129.051,-42.39 181.726,-57.15 l -112.968,13.4 c 0,0 -474.129,191.2 -885.23466,-36.84 l 3.76954,48.71"
         style="fill:#006838;fill-opacity:1;fill-rule:nonzero;stroke:none"
         id="path54" />
      <path
         d="m 1417.37,1470.07 c 0,0 -318.38,6.84 -617.761,112.34 0,0 -433.007,153.99 -779.9215,-18.75 l 1.3672,-51.75 c 0,0 267.0783,182.1 769.3243,34.02 0,0 226.221,-74.96 526.381,-89.84"
         style="fill:#006838;fill-opacity:1;fill-rule:nonzero;stroke:none"
         id="path56" />
      <path
         d="m 13.7969,1408.74 c 0,0 243.6251,199.76 736.3401,76.29 0,0 -516.114,71.49 -737.1292,-125.47 l 0.7891,49.18"
         style="fill:#006838;fill-opacity:1;fill-rule:nonzero;stroke:none"
         id="path58" />
      <path
         d="m 1057.97,1140.93 c 0,0 357.75,-19.3 648.55,73.28 -29.96,-41.83 -57.07,-73.98 -55.5,-73.28 0,0 -238.46,-36.91 -581.88,-24.77"
         style="fill:#006838;fill-opacity:1;fill-rule:nonzero;stroke:none"
         id="path60" />
      <path
         d="m 1016.36,1050.85 c 0,0 319.87,-20.04 549.97,7.74 l -35.89,-25.47 c 0,0 -240.21,-20.71 -492.37,-23.95 l -21.71,41.68"
         style="fill:#006838;fill-opacity:1;fill-rule:nonzero;stroke:none"
         id="path62" />
      <path
         d="m 1065.54,921.75 c 0,0 183.39,1.25 265.28,12.813 0,0 -83.52,-49.805 -255.14,-46.016 l -10.14,33.203"
         style="fill:#006838;fill-opacity:1;fill-rule:nonzero;stroke:none"
         id="path64" />
      <path
         d="m 1120.22,1556.28 c 0,0 220.99,8.13 345.01,68.28 l 20.81,-16.84 c 0,0 -156.06,-66.4 -305.36,-62.61 l -60.46,11.17"
         style="fill:#006838;fill-opacity:1;fill-rule:nonzero;stroke:none"
         id="path66" />
      <path
         d="m 1080.57,1093.7 c 0,0 367.9,-19.76 554.2,28.83 0,0 -16.41,-20 -52.47,-47.07 0,0 -274.47,-24.88 -490.27,-4.26 l -11.46,22.5"
         style="fill:#006838;fill-opacity:1;fill-rule:nonzero;stroke:none"
         id="path68" />
      <path
         d="m 1033.74,983.078 c 0,0 343.12,-5.781 464.02,24.572 0,0 -55.53,-33.322 -113.78,-49.962 0,0 -157.03,-18.399 -333.22,-9.454 l -17.02,34.844"
         style="fill:#006838;fill-opacity:1;fill-rule:nonzero;stroke:none"
         id="path70" />
      <path
         d="m 1419.84,1529.41 c 0,0 64.54,10.04 116.54,32.14 l 15.81,-14.1 c 0,0 -54.86,-21.32 -132.35,-18.04"
         style="fill:#006838;fill-opacity:1;fill-rule:nonzero;stroke:none"
         id="path72" />
      <path
         d="m 962.754,1589.84 c 0,0 277.146,-19.26 453.746,55.46 l 12.92,-13.9 c 0,0 -270.92,-99.85 -466.666,-41.56"
         style="fill:#006838;fill-opacity:1;fill-rule:nonzero;stroke:none"
         id="path74" />
      <path
         d="m 1262.36,1537.88 c 0,0 164.53,18.6 256.16,61.29 l 19.15,-16.09 c 0,0 -113.28,-49.22 -235.4,-50.2 0,0 -24.71,1.6 -39.91,5"
         style="fill:#006838;fill-opacity:1;fill-rule:nonzero;stroke:none"
         id="path76" />
      <path
         d="m 1498.25,1463 c 0,0 115.89,-135.2 193.12,-209.92 0,0 30.35,8.51 48.59,17.34 0,0 -101.13,71.33 -222.69,195 l -19.02,-2.42"
         style="fill:#006838;fill-opacity:1;fill-rule:nonzero;stroke:none"
         id="path78" />
      <path
         d="m 1070.16,152.309 c 5.15,-1.348 11.65,-1.887 19.51,-1.887 28.46,0 45.8,13.816 45.8,39.019 0,24.118 -17.07,35.778 -43.09,35.778 -10.3,0 -18.16,-0.821 -22.22,-1.887 z m -23.58,88.089 c 11.38,1.891 26.29,3.512 45.26,3.512 23.31,0 40.38,-5.41 51.22,-15.172 10.03,-8.679 15.99,-21.957 15.99,-38.207 0,-16.543 -4.88,-29.551 -14.09,-39.031 -12.47,-13.27 -32.8,-20.051 -55.83,-20.051 -7.05,0 -13.55,0.27 -18.97,1.621 V 59.8984 h -23.58 V 240.398"
         style="fill:#006838;fill-opacity:1;fill-rule:nonzero;stroke:none"
         id="path80" />
      <path
         d="m 1197.26,125.211 c 0,-28.7227 16.53,-50.4024 39.84,-50.4024 22.76,0 39.84,21.4102 39.84,50.9414 0,22.219 -11.12,50.41 -39.3,50.41 -28.18,0 -40.38,-26.019 -40.38,-50.949 z m 104.07,1.359 c 0,-48.5192 -33.61,-69.6481 -65.32,-69.6481 -35.5,0 -62.87,26.0078 -62.87,67.4761 0,43.911 28.73,69.653 65.04,69.653 37.67,0 63.15,-27.371 63.15,-67.481"
         style="fill:#006838;fill-opacity:1;fill-rule:nonzero;stroke:none"
         id="path82" />
      <path
         d="m 1326.81,84.2813 c 7.05,-4.6016 19.51,-9.4727 31.44,-9.4727 17.34,0 25.47,8.6719 25.47,19.5117 0,11.3787 -6.78,17.6207 -24.38,24.1207 -23.59,8.399 -34.7,21.411 -34.7,37.129 0,21.129 17.08,38.481 45.26,38.481 13.28,0 24.93,-3.789 32.25,-8.129 l -5.96,-17.34 c -5.15,3.238 -14.64,7.578 -26.83,7.578 -14.1,0 -21.95,-8.129 -21.95,-17.879 0,-10.84 7.85,-15.722 24.93,-22.222 22.77,-8.68 34.42,-20.059 34.42,-39.5707 0,-23.0469 -17.88,-39.5664 -49.06,-39.5664 -14.36,0 -27.64,3.789 -36.85,9.2187 l 5.96,18.1407"
         style="fill:#006838;fill-opacity:1;fill-rule:nonzero;stroke:none"
         id="path84" />
      <path
         d="m 1434.13,84.2813 c 7.04,-4.6016 19.51,-9.4727 31.44,-9.4727 17.34,0 25.47,8.6719 25.47,19.5117 0,11.3787 -6.77,17.6207 -24.39,24.1207 -23.57,8.399 -34.69,21.411 -34.69,37.129 0,21.129 17.07,38.481 45.26,38.481 13.28,0 24.94,-3.789 32.25,-8.129 l -5.97,-17.34 c -5.14,3.238 -14.62,7.578 -26.82,7.578 -14.09,0 -21.95,-8.129 -21.95,-17.879 0,-10.84 7.86,-15.722 24.93,-22.222 22.76,-8.68 34.42,-20.059 34.42,-39.5707 0,-23.0469 -17.89,-39.5664 -49.05,-39.5664 -14.37,0 -27.65,3.789 -36.87,9.2187 l 5.97,18.1407"
         style="fill:#006838;fill-opacity:1;fill-rule:nonzero;stroke:none"
         id="path86" />
      <path
         d="M 1544.71,59.8984 V 191.07 h 23.84 V 59.8984 Z m 26.56,168.0236 c 0.26,-8.133 -5.69,-14.633 -15.19,-14.633 -8.4,0 -14.35,6.5 -14.35,14.633 0,8.406 6.23,14.918 14.9,14.918 8.95,0 14.64,-6.512 14.64,-14.918"
         style="fill:#006838;fill-opacity:1;fill-rule:nonzero;stroke:none"
         id="path88" />
      <path
         d="m 1628.45,112.48 c 0,-2.98 0.54,-5.968 1.08,-8.679 4.61,-16.5315 18.43,-27.9221 35.78,-27.9221 24.93,0 39.84,20.3399 39.84,50.4101 0,26.289 -13.55,48.789 -39.03,48.789 -16.26,0 -31.43,-11.109 -36.32,-29.269 -0.53,-2.707 -1.35,-5.957 -1.35,-9.75 z m -23.58,139.84 h 23.58 v -82.39 h 0.54 c 8.4,14.64 23.58,24.121 44.72,24.121 32.52,0 55.56,-27.102 55.28,-66.942 0,-46.8902 -29.54,-70.1871 -58.81,-70.1871 -18.97,0 -34.14,7.3086 -43.9,24.6601 h -0.81 l -1.09,-21.6836 h -20.59 c 0.54,8.9414 1.08,22.211 1.08,33.8711 V 252.32"
         style="fill:#006838;fill-opacity:1;fill-rule:nonzero;stroke:none"
         id="path90" />
      <path
         d="M 1758,59.8984 V 191.07 h 23.84 V 59.8984 Z m 26.56,168.0236 c 0.26,-8.133 -5.69,-14.633 -15.18,-14.633 -8.4,0 -14.36,6.5 -14.36,14.633 0,8.406 6.23,14.918 14.9,14.918 8.95,0 14.64,-6.512 14.64,-14.918"
         style="fill:#006838;fill-opacity:1;fill-rule:nonzero;stroke:none"
         id="path92" />
      <path
         d="m 1821.14,252.32 h 23.85 V 59.8984 h -23.85 V 252.32"
         style="fill:#006838;fill-opacity:1;fill-rule:nonzero;stroke:none"
         id="path94" />
      <path
         d="M 1884.01,59.8984 V 191.07 h 23.85 V 59.8984 Z m 26.57,168.0236 c 0.26,-8.133 -5.7,-14.633 -15.19,-14.633 -8.4,0 -14.35,6.5 -14.35,14.633 0,8.406 6.23,14.918 14.9,14.918 8.94,0 14.64,-6.512 14.64,-14.918"
         style="fill:#006838;fill-opacity:1;fill-rule:nonzero;stroke:none"
         id="path96" />
      <path
         d="m 1976.16,222.5 v -31.43 h 34.14 v -18.148 h -34.14 v -70.75 c 0,-16.2618 4.6,-25.4728 17.88,-25.4728 6.51,0 10.3,0.5391 13.83,1.6328 l 1.08,-17.9023 c -4.61,-1.8906 -11.93,-3.5078 -21.14,-3.5078 -11.11,0 -20.06,3.789 -25.75,10.289 -6.77,7.0508 -9.21,18.6993 -9.21,34.1481 v 71.563 h -20.32 v 18.148 h 20.32 v 24.121 l 23.31,7.309"
         style="fill:#006838;fill-opacity:1;fill-rule:nonzero;stroke:none"
         id="path98" />
      <path
         d="m 2052.86,191.07 28.73,-77.511 c 2.98,-8.668 6.23,-18.977 8.4,-26.8402 h 0.54 c 2.44,7.8632 5.15,17.8902 8.4,27.3902 l 26.02,76.961 h 25.21 L 2114.38,97.5586 C 2097.3,52.5781 2085.65,29.5508 2069.39,15.4492 2057.73,5.14844 2046.08,1.08984 2040.13,0 l -5.97,20.0586 c 5.97,1.9023 13.82,5.6914 20.87,11.6523 6.5,5.1485 14.64,14.3711 20.06,26.5586 1.08,2.4414 1.89,4.3321 1.89,5.6993 0,1.3515 -0.55,3.2421 -1.63,6.2304 L 2026.84,191.07 h 26.02"
         style="fill:#006838;fill-opacity:1;fill-rule:nonzero;stroke:none"
         id="path100" />
      <path
         d="m 2327.39,139.301 c 0,4.058 -0.27,7.597 -1.35,10.84 -4.34,13.828 -15.99,25.218 -33.34,25.218 -22.76,0 -39.03,-19.25 -39.03,-49.609 0,-25.75 13.02,-47.1484 38.76,-47.1484 14.64,0 27.91,9.2187 33.07,24.3864 1.36,4.071 1.89,8.684 1.89,12.742 z m 23.58,-60.4299 c 0,-30.0898 -5.96,-48.5117 -18.7,-59.9023 -12.74,-11.91021 -31.17,-15.70708 -47.7,-15.70708 -15.71,0 -33.07,3.79687 -43.63,10.83988 l 5.96,18.1484 c 8.68,-5.4102 22.22,-10.2891 38.48,-10.2891 24.39,0 42.29,12.7305 42.29,45.8008 v 14.6289 h -0.55 c -7.32,-12.1914 -21.41,-21.9609 -41.74,-21.9609 -32.52,0 -55.82,27.6523 -55.82,63.9683 0,44.454 28.99,69.653 59.08,69.653 22.77,0 35.23,-11.93 40.92,-22.77 h 0.55 l 1.08,19.789 h 20.86 c -0.54,-9.48 -1.08,-20.05 -1.08,-36.05 V 78.8711"
         style="fill:#006838;fill-opacity:1;fill-rule:nonzero;stroke:none"
         id="path102" />
      <path
         d="m 2388.09,150.141 c 0,15.449 -0.27,28.73 -1.08,40.929 h 20.87 l 0.81,-25.75 h 1.08 c 5.97,17.61 20.33,28.731 36.32,28.731 2.71,0 4.61,-0.281 6.78,-0.813 V 170.75 c -2.44,0.531 -4.88,0.809 -8.13,0.809 -16.81,0 -28.74,-12.75 -31.99,-30.629 -0.53,-3.25 -1.08,-7.039 -1.08,-11.11 V 59.8984 h -23.58 v 90.2426"
         style="fill:#006838;fill-opacity:1;fill-rule:nonzero;stroke:none"
         id="path104" />
      <path
         d="m 2488.64,125.211 c 0,-28.7227 16.53,-50.4024 39.85,-50.4024 22.76,0 39.84,21.4102 39.84,50.9414 0,22.219 -11.11,50.41 -39.3,50.41 -28.19,0 -40.39,-26.019 -40.39,-50.949 z m 104.07,1.359 c 0,-48.5192 -33.6,-69.6481 -65.31,-69.6481 -35.5,0 -62.87,26.0078 -62.87,67.4761 0,43.911 28.72,69.653 65.04,69.653 37.68,0 63.14,-27.371 63.14,-67.481"
         style="fill:#006838;fill-opacity:1;fill-rule:nonzero;stroke:none"
         id="path106" />
      <path
         d="m 2630.39,191.07 17.34,-66.672 c 3.8,-14.628 7.33,-28.1792 9.76,-41.7378 h 0.82 c 2.98,13.2812 7.32,27.3708 11.65,41.7378 l 21.41,66.672 h 20.05 l 20.33,-65.59 c 4.88,-15.71 8.67,-29.5386 11.66,-42.8198 h 0.81 c 2.17,13.2812 5.69,27.1098 10.03,42.5508 l 18.7,65.859 h 23.57 L 2754.25,59.8984 h -21.68 L 2712.51,122.5 c -4.61,14.629 -8.4,27.641 -11.65,43.09 h -0.55 c -3.25,-15.719 -7.31,-29.27 -11.92,-43.36 l -21.14,-62.3316 h -21.68 L 2606,191.07 h 24.39"
         style="fill:#006838;fill-opacity:1;fill-rule:nonzero;stroke:none"
         id="path108" />
      <path
         d="m 2815.49,84.2813 c 7.04,-4.6016 19.51,-9.4727 31.43,-9.4727 17.35,0 25.48,8.6719 25.48,19.5117 0,11.3787 -6.77,17.6207 -24.39,24.1207 -23.58,8.399 -34.69,21.411 -34.69,37.129 0,21.129 17.07,38.481 45.25,38.481 13.28,0 24.95,-3.789 32.26,-8.129 l -5.97,-17.34 c -5.14,3.238 -14.63,7.578 -26.82,7.578 -14.09,0 -21.96,-8.129 -21.96,-17.879 0,-10.84 7.87,-15.722 24.94,-22.222 22.76,-8.68 34.42,-20.059 34.42,-39.5707 0,-23.0469 -17.89,-39.5664 -49.05,-39.5664 -14.37,0 -27.65,3.789 -36.87,9.2187 l 5.97,18.1407"
         style="fill:#006838;fill-opacity:1;fill-rule:nonzero;stroke:none"
         id="path110" />
      <path
         d="m 2991.65,252.32 h 23.85 v -81.851 h 0.54 c 3.79,6.781 9.76,12.742 17.07,16.801 7.05,4.058 15.45,6.781 24.4,6.781 17.61,0 45.8,-10.84 45.8,-56.102 V 59.8984 h -23.85 v 75.3396 c 0,21.133 -7.86,39.024 -30.36,39.024 -15.45,0 -27.64,-10.84 -31.97,-23.84 -1.36,-3.262 -1.63,-6.781 -1.63,-11.391 V 59.8984 h -23.85 V 252.32"
         style="fill:#006838;fill-opacity:1;fill-rule:nonzero;stroke:none"
         id="path112" />
      <path
         d="m 3225.26,138.23 c 0.27,15.168 -6.24,38.75 -33.06,38.75 -24.12,0 -34.69,-22.23 -36.6,-38.75 z m -69.92,-17.082 c 0.54,-32.2574 21.13,-45.5386 44.99,-45.5386 17.07,0 27.37,2.9922 36.31,6.7812 l 4.07,-17.0703 c -8.41,-3.789 -22.77,-8.3984 -43.63,-8.3984 -40.39,0 -64.5,26.8281 -64.5,66.3981 0,39.571 23.3,70.731 61.51,70.731 42.82,0 54.21,-37.68 54.21,-61.789 0,-4.883 -0.55,-8.68 -0.82,-11.114 h -92.14"
         style="fill:#006838;fill-opacity:1;fill-rule:nonzero;stroke:none"
         id="path114" />
      <path
         d="m 3277.84,150.141 c 0,15.449 -0.27,28.73 -1.08,40.929 h 20.87 l 0.81,-25.75 h 1.08 c 5.97,17.61 20.32,28.731 36.32,28.731 2.7,0 4.61,-0.281 6.78,-0.813 V 170.75 c -2.45,0.531 -4.89,0.809 -8.14,0.809 -16.81,0 -28.73,-12.75 -31.98,-30.629 -0.54,-3.25 -1.08,-7.039 -1.08,-11.11 V 59.8984 h -23.58 v 90.2426"
         style="fill:#006838;fill-opacity:1;fill-rule:nonzero;stroke:none"
         id="path116" />
      <path
         d="m 3446.96,138.23 c 0.27,15.168 -6.24,38.75 -33.06,38.75 -24.13,0 -34.69,-22.23 -36.6,-38.75 z m -69.92,-17.082 c 0.54,-32.2574 21.13,-45.5386 44.99,-45.5386 17.07,0 27.37,2.9922 36.31,6.7812 l 4.07,-17.0703 c -8.41,-3.789 -22.77,-8.3984 -43.63,-8.3984 -40.39,0 -64.5,26.8281 -64.5,66.3981 0,39.571 23.3,70.731 61.51,70.731 42.82,0 54.21,-37.68 54.21,-61.789 0,-4.883 -0.55,-8.68 -0.82,-11.114 h -92.14"
         style="fill:#006838;fill-opacity:1;fill-rule:nonzero;stroke:none"
         id="path118" />
      <path
         d="m 3506.32,56.9219 c -9.22,0 -15.73,7.3086 -15.73,17.0664 0,10.0312 6.78,17.0703 16.26,17.0703 9.5,0 16,-7.0391 16,-17.0703 0,-9.7578 -6.24,-17.0664 -16.27,-17.0664 h -0.26"
         style="fill:#006838;fill-opacity:1;fill-rule:nonzero;stroke:none"
         id="path120" />
    </g>
  </g>
</svg>
